<?xml version="1.0" encoding="UTF-8"?>
<svg width="402px" height="72px" viewBox="0 0 402 72" version="1.1" xmlns="http://www.w3.org/2000/svg" xmlns:xlink="http://www.w3.org/1999/xlink">
    <!-- Generator: Sketch 48.2 (47327) - http://www.bohemiancoding.com/sketch -->
    <title>Logo</title>
    <desc>Created with Sketch.</desc>
    <defs></defs>
    <g id="Unoccupied" stroke="none" stroke-width="1" fill="none" fill-rule="evenodd" transform="translate(-759.000000, -504.000000)">
        <g id="Logo" transform="translate(759.000000, 494.000000)">
            <g>
                <g id="planet" transform="translate(109.129737, 45.750824) rotate(-60.000000) translate(-109.129737, -45.750824) translate(69.236607, 24.050824)" stroke="#FBFBFB">
                    <path d="M39.8931298,43.4 C51.5573242,43.4 61.013022,33.6845791 61.013022,21.7 C61.013022,9.71542093 51.5573242,0 39.8931298,0 C28.2289354,0 18.7732375,9.71542093 18.7732375,21.7 C18.7732375,33.6845791 28.2289354,43.4 39.8931298,43.4 Z" id="Oval-1"></path>
                    <path d="M19.6580329,27.9350856 C7.8932459,26.6771327 0,24.355702 0,21.7 C0,19.044298 7.8932459,16.7228673 19.6580329,15.4649144 C22.2653236,6.5193328 30.3382437,0 39.8931298,0 C49.4480159,0 57.5209359,6.5193328 60.1282266,15.4649144 C71.8930136,16.7228673 79.7862595,19.044298 79.7862595,21.7 C79.7862595,24.355702 71.8930136,26.6771327 60.1282266,27.9350856 C57.5209359,36.8806672 49.4480159,43.4 39.8931298,43.4 C30.3382437,43.4 22.2653236,36.8806672 19.6580329,27.9350856 Z" id="Oval-1" stroke-width="1.2"></path>
                    <path d="M79.7862595,28.9333333 C79.7862595,24.9384736 61.925497,21.7 39.8931298,21.7 C17.8607626,21.7 0,24.9384736 0,28.9333333" id="Oval-2" stroke-width="1.2" transform="translate(39.893130, 25.316667) scale(1, -1) translate(-39.893130, -25.316667) "></path>
                </g>
                <g id="Group-3" transform="translate(0.000000, 24.800000)" fill="#FBFBFB">
                    <path d="M14.6950964,42.1025684 C11.8101551,42.1025684 9.44814479,41.6000471 7.6089947,40.5949895 C5.7698446,39.5899318 4.30936496,38.3199235 3.22751197,36.7849263 C2.14565897,35.2499292 1.39738854,33.5779038 0.982678225,31.7688 C0.56796791,29.9596962 0.360615862,28.2511238 0.360615862,26.6430316 L0.360615862,2.30248421 L4.25526718,2.30248421 L4.25526718,26.2044632 C4.25526718,27.7760079 4.4355733,29.3018452 4.79619097,30.7820211 C5.15680863,32.2621969 5.74280355,33.577889 6.5541933,34.7291368 C7.36558305,35.8803847 8.43840451,36.8123333 9.77268987,37.5250105 C11.1069752,38.2376878 12.747761,38.5940211 14.6950964,38.5940211 C16.6424318,38.5940211 18.2832175,38.2376878 19.6175029,37.5250105 C20.9517883,36.8123333 22.0246097,35.8803847 22.8359995,34.7291368 C23.6473892,33.577889 24.2333841,32.2621969 24.5940018,30.7820211 C24.9546195,29.3018452 25.1349256,27.7760079 25.1349256,26.2044632 L25.1349256,2.30248421 L29.0295769,2.30248421 L29.0295769,26.6430316 C29.0295769,28.2511238 28.8222249,29.9596962 28.4075146,31.7688 C27.9928042,33.5779038 27.2445338,35.2499292 26.1626808,36.7849263 C25.0808278,38.3199235 23.6113329,39.5899318 21.7541519,40.5949895 C19.8969709,41.6000471 17.5439759,42.1025684 14.6950964,42.1025684 Z M71.5461868,35.3595789 L71.6543715,35.3595789 L71.6543715,2.30248421 L75.5490228,2.30248421 L75.5490228,41.1157895 L70.6807087,41.1157895 L48.3946484,7.72976842 L48.2864636,7.72976842 L48.2864636,41.1157895 L44.3918123,41.1157895 L44.3918123,2.30248421 L49.2601265,2.30248421 L71.5461868,35.3595789 Z" id="UN-Copy"></path>
                    <path d="M175.623392,34.8661895 C174.974281,35.8529734 174.189949,36.7849219 173.270374,37.6620632 C172.350799,38.5392044 171.286993,39.3066914 170.078924,39.9645474 C168.870854,40.6224033 167.536589,41.1431981 166.076087,41.5269474 C164.615586,41.9106967 163.019877,42.1025684 161.288912,42.1025684 C158.403971,42.1025684 155.73544,41.5909104 153.28324,40.5675789 C150.83104,39.5442475 148.721458,38.1280512 146.954431,36.3189474 C145.187405,34.5098436 143.808063,32.3627072 142.816364,29.8774737 C141.824666,27.3922402 141.328824,24.6694885 141.328824,21.7091368 C141.328824,18.7487852 141.833681,16.0260335 142.843411,13.5408 C143.85314,11.0555665 145.250512,8.9084301 147.03557,7.09932632 C148.820627,5.29022253 150.930209,3.87402617 153.364378,2.85069474 C155.798548,1.8273633 158.440032,1.31570526 161.288912,1.31570526 C162.695321,1.31570526 164.074663,1.46189327 165.426979,1.75427368 C166.779295,2.04665409 168.050453,2.45780788 169.240492,2.98774737 C170.43053,3.51768686 171.512367,4.15725941 172.486034,4.90648421 C173.459702,5.65570901 174.27108,6.50542683 174.920191,7.45566316 L171.674649,9.86778947 C171.277969,9.2464811 170.746066,8.62518205 170.078924,8.00387368 C169.411781,7.38256531 168.627449,6.83436027 167.725905,6.35924211 C166.824361,5.88412394 165.841692,5.50038041 164.77787,5.208 C163.714048,4.91561959 162.569104,4.76943158 161.343004,4.76943158 C158.854742,4.76943158 156.627962,5.22626912 154.662595,6.13995789 C152.697229,7.05364667 151.029397,8.28710802 149.65905,9.84037895 C148.288703,11.3936499 147.242928,13.1935898 146.521692,15.2402526 C145.800457,17.2869155 145.439845,19.4431887 145.439845,21.7091368 C145.439845,23.975085 145.809472,26.1313582 146.548739,28.1780211 C147.288005,30.2246839 148.342796,32.0246238 149.713143,33.5778947 C151.08349,35.1311657 152.751322,36.364627 154.716688,37.2783158 C156.682054,38.1920046 158.890804,38.6488421 161.343004,38.6488421 C163.542772,38.6488421 165.634323,38.1920046 167.61772,37.2783158 C169.601117,36.364627 171.259934,34.9027469 172.594219,32.8926316 L175.623392,34.8661895 Z M219.330035,34.8661895 C218.680923,35.8529734 217.896591,36.7849219 216.977016,37.6620632 C216.057441,38.5392044 214.993635,39.3066914 213.785566,39.9645474 C212.577497,40.6224033 211.243231,41.1431981 209.78273,41.5269474 C208.322228,41.9106967 206.726519,42.1025684 204.995554,42.1025684 C202.110613,42.1025684 199.442082,41.5909104 196.989882,40.5675789 C194.537682,39.5442475 192.4281,38.1280512 190.661074,36.3189474 C188.894047,34.5098436 187.514705,32.3627072 186.523007,29.8774737 C185.531308,27.3922402 185.035466,24.6694885 185.035466,21.7091368 C185.035466,18.7487852 185.540323,16.0260335 186.550053,13.5408 C187.559782,11.0555665 188.957155,8.9084301 190.742212,7.09932632 C192.52727,5.29022253 194.636851,3.87402617 197.071021,2.85069474 C199.50519,1.8273633 202.146675,1.31570526 204.995554,1.31570526 C206.401963,1.31570526 207.781305,1.46189327 209.133621,1.75427368 C210.485937,2.04665409 211.757096,2.45780788 212.947134,2.98774737 C214.137172,3.51768686 215.219009,4.15725941 216.192677,4.90648421 C217.166344,5.65570901 217.977722,6.50542683 218.626834,7.45566316 L215.381291,9.86778947 C214.984611,9.2464811 214.452708,8.62518205 213.785566,8.00387368 C213.118423,7.38256531 212.334091,6.83436027 211.432547,6.35924211 C210.531003,5.88412394 209.548335,5.50038041 208.484513,5.208 C207.42069,4.91561959 206.275747,4.76943158 205.049646,4.76943158 C202.561385,4.76943158 200.334604,5.22626912 198.369238,6.13995789 C196.403871,7.05364667 194.73604,8.28710802 193.365693,9.84037895 C191.995345,11.3936499 190.94957,13.1935898 190.228335,15.2402526 C189.507099,17.2869155 189.146487,19.4431887 189.146487,21.7091368 C189.146487,23.975085 189.516114,26.1313582 190.255381,28.1780211 C190.994647,30.2246839 192.049438,32.0246238 193.419785,33.5778947 C194.790132,35.1311657 196.457964,36.364627 198.42333,37.2783158 C200.388696,38.1920046 202.597446,38.6488421 205.049646,38.6488421 C207.249414,38.6488421 209.340965,38.1920046 211.324362,37.2783158 C213.30776,36.364627 214.966576,34.9027469 216.300861,32.8926316 L219.330035,34.8661895 Z M245.564838,42.1025684 C242.679897,42.1025684 240.317887,41.6000471 238.478737,40.5949895 C236.639586,39.5899318 235.179107,38.3199235 234.097254,36.7849263 C233.015401,35.2499292 232.26713,33.5779038 231.85242,31.7688 C231.43771,29.9596962 231.230358,28.2511238 231.230358,26.6430316 L231.230358,2.30248421 L235.125009,2.30248421 L235.125009,26.2044632 C235.125009,27.7760079 235.305315,29.3018452 235.665933,30.7820211 C236.026551,32.2621969 236.612545,33.577889 237.423935,34.7291368 C238.235325,35.8803847 239.308146,36.8123333 240.642432,37.5250105 C241.976717,38.2376878 243.617503,38.5940211 245.564838,38.5940211 C247.512174,38.5940211 249.152959,38.2376878 250.487245,37.5250105 C251.82153,36.8123333 252.894352,35.8803847 253.705741,34.7291368 C254.517131,33.577889 255.103126,32.2621969 255.463744,30.7820211 C255.824361,29.3018452 256.004667,27.7760079 256.004667,26.2044632 L256.004667,2.30248421 L259.899319,2.30248421 L259.899319,26.6430316 C259.899319,28.2511238 259.691967,29.9596962 259.277256,31.7688 C258.862546,33.5779038 258.114276,35.2499292 257.032423,36.7849263 C255.95057,38.3199235 254.481075,39.5899318 252.623894,40.5949895 C250.766713,41.6000471 248.413718,42.1025684 245.564838,42.1025684 Z M275.261554,2.30248421 L286.08003,2.30248421 C288.027365,2.30248421 289.794366,2.51262948 291.381083,2.93292632 C292.967801,3.35322315 294.329112,3.99279571 295.465058,4.85166316 C296.601004,5.71053061 297.475488,6.7886672 298.088538,8.08610526 C298.701588,9.38354333 299.008109,10.9093807 299.008109,12.6636632 C299.008109,14.4179456 298.692573,15.943783 298.061492,17.2412211 C297.430411,18.5386591 296.546911,19.6167957 295.410966,20.4756632 C294.27502,21.3345306 292.904693,21.9832399 291.299945,22.4218105 C289.695196,22.8603811 287.919181,23.0796632 285.971845,23.0796632 L279.156206,23.0796632 L279.156206,41.1157895 L275.261554,41.1157895 L275.261554,2.30248421 Z M279.156206,19.7355789 L285.755476,19.7355789 C288.820726,19.7355789 291.146675,19.1325534 292.733393,17.9264842 C294.32011,16.720415 295.113457,14.9661589 295.113457,12.6636632 C295.113457,10.2515248 294.293065,8.48813189 292.652254,7.37343158 C291.011444,6.25873127 288.712541,5.70138947 285.755476,5.70138947 L279.156206,5.70138947 L279.156206,19.7355789 Z M315.939023,41.1157895 L312.044372,41.1157895 L312.044372,2.30248421 L315.939023,2.30248421 L315.939023,41.1157895 Z M335.412279,37.6072421 L355.913291,37.6072421 L355.913291,41.1157895 L331.517628,41.1157895 L331.517628,2.30248421 L355.264183,2.30248421 L355.264183,5.81103158 L335.412279,5.81103158 L335.412279,19.1873684 L353.965966,19.1873684 L353.965966,22.6410947 L335.412279,22.6410947 L335.412279,37.6072421 Z M368.949554,2.30248421 L381.661263,2.30248421 C384.04134,2.30248421 386.430396,2.70450124 388.828504,3.50854737 C391.226611,4.31259349 393.390285,5.52778134 395.319589,7.15414737 C397.248894,8.78051339 398.808542,10.8088721 399.99858,13.2392842 C401.188618,15.6696964 401.783629,18.4929523 401.783629,21.7091368 C401.783629,24.9618689 401.188618,27.7942616 399.99858,30.2064 C398.808542,32.6185384 397.248894,34.6377603 395.319589,36.2641263 C393.390285,37.8904923 391.226611,39.1056802 388.828504,39.9097263 C386.430396,40.7137724 384.04134,41.1157895 381.661263,41.1157895 L368.949554,41.1157895 L368.949554,2.30248421 Z M372.844206,37.6072421 L380.579416,37.6072421 C383.464357,37.6072421 385.979628,37.1504046 388.125303,36.2367158 C390.270978,35.323027 392.046993,34.1261127 393.453402,32.6459368 C394.859811,31.165761 395.914602,29.4754621 396.617806,27.5749895 C397.321011,25.6745168 397.672608,23.7192522 397.672608,21.7091368 C397.672608,19.6990215 397.321011,17.7437569 396.617806,15.8432842 C395.914602,13.9428116 394.859811,12.2525127 393.453402,10.7723368 C392.046993,9.29216102 390.270978,8.09524667 388.125303,7.18155789 C385.979628,6.26786912 383.464357,5.81103158 380.579416,5.81103158 L372.844206,5.81103158 L372.844206,37.6072421 Z" id="CCUPIED-Copy"></path>
                </g>
            </g>
        </g>
    </g>
</svg>